<svg version="1.1" preserveAspectRatio="none" xmlns="http://www.w3.org/2000/svg" width="500" height="500" viewBox="0 0 500 500"><rect width="100%" height="100%" fill="#192537" fill-opacity="1"/><svg viewBox="72.7278 194.7674 362.488 134.8664" width="333" height="123.89516673655403" x="83.5px" y="188.0524px" xmlns="http://www.w3.org/2000/svg" xmlns:xlink="http://www.w3.org/1999/xlink" preserveAspectRatio="none"><defs></defs><style>.companyName {fill:#E9E9E9;fill-opacity:1;}.icon1 {fill:#B09E80;fill-opacity:0.98;}.icon2 {fill:#E9E9E9;fill-opacity:1;}.icon3 {fill:#716551;fill-opacity:1;}.icon3-str {stroke:#716551;stroke-opacity:1;}.shapeStroke-str {stroke:#E9E9E9;stroke-opacity:1;}.text {fill:#B09E80;fill-opacity:1;}</style><g opacity="1" transform="rotate(0 121.2126 314.6338)">
<svg width="265.5185" height="15" x="121.2126" y="314.6338" version="1.1" preserveAspectRatio="none" viewBox="0.8 -28 732.1200000000001 41.36">
  <g transform="matrix(1 0 0 1 0 0)" class="text"><path id="id-6izo4zJp30" d="M10.12-6.64L16.12-8.24L16.12-4.84L0.80-0.72L0.80-4.12L4.80-5.20Q3.64-6.96 3.64-10.52L3.64-10.52Q3.64-15.40 6.20-17.60Q8.76-19.80 14.48-19.80L14.48-19.80L14.48-16.20Q12.40-16.20 10.40-15.76Q8.40-15.32 7.04-14.56L7.04-14.56L7.04-8.48Q7.04-7.36 7.36-6.86Q7.68-6.36 8.48-6.36L8.48-6.36Q9.16-6.36 10.12-6.64L10.12-6.64Z M28.92 0L28.92-25.20L32.12-25.20L32.12 0L28.92 0Z M46.60 10.36L45.24 7.56Q47.56 6.44 48.46 4.78Q49.36 3.12 49.36 0L49.36 0L49.36-18.80L52.56-18.80L52.56 0Q52.56 3.96 51.16 6.40Q49.76 8.84 46.60 10.36L46.60 10.36Z M89.92-3.60L89.92 0L84.08 0Q83.12 2.92 80.98 5.86Q78.84 8.80 76.24 10.68L76.24 10.68L74.24 8.20Q76.28 6.60 78 4.40Q79.72 2.20 80.68 0L80.68 0L73.76 0Q71.40 0 70.18-0.82Q68.96-1.64 68.46-3.68Q67.96-5.72 67.96-9.60L67.96-9.60Q67.96-13.60 68.66-15.60Q69.36-17.60 71.12-18.40Q72.88-19.20 76.36-19.20L76.36-19.20Q78.92-19.20 80.80-18.92Q82.68-18.64 84.72-17.96L84.72-17.96L84.72-3.60L89.92-3.60ZM71.36-3.60L79.68-3.60Q80.72-3.60 81.12-4.02Q81.52-4.44 81.52-5.60L81.52-5.60L81.52-15.60L73.20-15.60Q72.12-15.60 71.74-15.16Q71.36-14.72 71.36-13.40L71.36-13.40L71.36-3.60Z M97.12 0L97.12 0ZM115.64-10.80L119.32-10.80L119.32-7.20L115.80-7.20Q115.48-7.20 115-7.28L115-7.28Q111.12 0 102.84 0L102.84 0L96.32 0L96.32-3.60L103.76-3.60Q106.88-3.60 109.12-5.42Q111.36-7.24 112.64-9.88L112.64-9.88Q111.76-12.08 110.58-13.32Q109.40-14.56 107.64-15.08Q105.88-15.60 103.12-15.60L103.12-15.60Q101.44-15.60 99.80-15.44L99.80-15.44L99.28-18.96Q101.64-19.20 103.52-19.20L103.52-19.20Q106.88-19.20 109.16-18.36Q111.44-17.52 112.98-15.68Q114.52-13.84 115.64-10.80L115.64-10.80ZM107.72 7.60Q107.12 7.64 106.32 6.84Q105.52 6.04 105.52 5.40L105.52 5.40Q105.52 4.76 106.30 4Q107.08 3.24 107.72 3.20L107.72 3.20Q108.36 3.24 109.14 4Q109.92 4.76 109.92 5.40L109.92 5.40Q109.92 6 109.12 6.82Q108.32 7.64 107.72 7.60L107.72 7.60Z M131.32 0L131.32-25.20L134.52-25.20L134.52-3.60L139.32-3.60L139.32 0L131.32 0Z M146.52 0L146.52 0ZM145.72 0L145.72-3.60L152.12-3.60L152.12-18.80L155.32-18.80L155.32 0L145.72 0ZM150.84-23.60Q150.24-23.56 149.44-24.36Q148.64-25.16 148.64-25.80L148.64-25.80Q148.64-26.44 149.42-27.20Q150.20-27.96 150.84-28L150.84-28Q151.48-27.96 152.26-27.20Q153.04-26.44 153.04-25.80L153.04-25.80Q153.04-25.20 152.24-24.38Q151.44-23.56 150.84-23.60L150.84-23.60ZM156.60-23.60Q156-23.56 155.20-24.36Q154.40-25.16 154.40-25.80L154.40-25.80Q154.40-26.44 155.18-27.20Q155.96-27.96 156.60-28L156.60-28Q157.24-27.96 158.02-27.20Q158.80-26.44 158.80-25.80L158.80-25.80Q158.80-25.20 158-24.38Q157.20-23.56 156.60-23.60L156.60-23.60Z M188.72 0L188.72 0ZM206.60-3.60L210.88-3.60L210.88 0L196.84 0Q193.24 0 191.58-0.70Q189.92-1.40 189.32-3.32Q188.72-5.24 188.72-9.40L188.72-9.40Q188.72-13.56 189.32-15.48Q189.92-17.40 191.58-18.10Q193.24-18.80 196.84-18.80L196.84-18.80L206.60-18.80L206.60-3.60ZM203.40-3.60L203.40-15.20L194.88-15.20Q193.40-15.20 192.76-14.68Q192.12-14.16 192.12-12.96L192.12-12.96L192.12-5.84Q192.12-4.64 192.76-4.12Q193.40-3.60 194.88-3.60L194.88-3.60L203.40-3.60ZM194.84-23.60Q194.24-23.56 193.44-24.36Q192.64-25.16 192.64-25.80L192.64-25.80Q192.64-26.44 193.42-27.20Q194.20-27.96 194.84-28L194.84-28Q195.48-27.96 196.26-27.20Q197.04-26.44 197.04-25.80L197.04-25.80Q197.04-25.20 196.24-24.38Q195.44-23.56 194.84-23.60L194.84-23.60ZM200.60-23.60Q200.00-23.56 199.20-24.36Q198.40-25.16 198.40-25.80L198.40-25.80Q198.40-26.44 199.18-27.20Q199.96-27.96 200.60-28L200.60-28Q201.24-27.96 202.02-27.20Q202.80-26.44 202.80-25.80L202.80-25.80Q202.80-25.20 202.00-24.38Q201.20-23.56 200.60-23.60L200.60-23.60Z M218.08 0L218.08 0ZM226.88-3.60L231.68-3.60L231.68 0L217.28 0L217.28-3.60L223.68-3.60L223.68-18.80L226.88-18.80L226.88-3.60ZM225.28-23.60Q224.68-23.56 223.88-24.36Q223.08-25.16 223.08-25.80L223.08-25.80Q223.08-26.44 223.86-27.20Q224.64-27.96 225.28-28L225.28-28Q225.92-27.96 226.70-27.20Q227.48-26.44 227.48-25.80L227.48-25.80Q227.48-25.20 226.68-24.38Q225.88-23.56 225.28-23.60L225.28-23.60Z M238.88 0L238.88 0ZM238.08 0L238.08-3.60L244.48-3.60L244.48-18.80L247.68-18.80L247.68 0L238.08 0ZM240.64 6.80Q240.04 6.84 239.24 6.04Q238.44 5.24 238.44 4.60L238.44 4.60Q238.44 3.96 239.22 3.20Q240.00 2.44 240.64 2.40L240.64 2.40Q241.28 2.44 242.06 3.20Q242.84 3.96 242.84 4.60L242.84 4.60Q242.84 5.20 242.04 6.02Q241.24 6.84 240.64 6.80L240.64 6.80ZM246.40 6.80Q245.80 6.84 245.00 6.04Q244.20 5.24 244.20 4.60L244.20 4.60Q244.20 3.96 244.98 3.20Q245.76 2.44 246.40 2.40L246.40 2.40Q247.04 2.44 247.82 3.20Q248.60 3.96 248.60 4.60L248.60 4.60Q248.60 5.20 247.80 6.02Q247.00 6.84 246.40 6.80L246.40 6.80Z M277.96-3.60L280.20-3.60L280.20 0L260.48 0L260.48-3.60L274.36-3.60Q272.84-9.08 271.72-11.62Q270.60-14.16 269.24-15.10Q267.88-16.04 265.52-16.04L265.52-16.04Q264.00-16.04 262.48-15.64L262.48-15.64L261.60-19.16Q263.64-19.64 265.52-19.64L265.52-19.64Q269.20-19.64 271.04-18.62Q272.88-17.60 274.32-14.42Q275.76-11.24 277.96-3.60L277.96-3.60Z M309.60-3.60L314.40-3.60L314.40 0L286.60 0L286.60-3.60L292.44-3.60Q291.80-5.72 291.80-9.12L291.80-9.12Q291.80-13.12 293.56-17.60L293.56-17.60Q295.16-18.36 297.54-18.78Q299.92-19.20 302.24-19.20L302.24-19.20Q305.00-19.20 306.60-18.70Q308.20-18.20 308.90-17.08Q309.60-15.96 309.60-14L309.60-14L309.60-3.60ZM306.40-3.60L306.40-15.16Q304.64-15.60 301.96-15.60L301.96-15.60Q299.08-15.60 296.00-14.92L296.00-14.92Q295.00-11.60 295.00-9.12L295.00-9.12Q295.00-5.72 295.72-3.60L295.72-3.60L306.40-3.60Z M330.40 0L320.80 0L320.80-3.60L327.20-3.60L327.20-25.20L330.40-25.20L330.40 0Z M363.80 0L363.80 0ZM381.68-3.60L385.96-3.60L385.96 0L371.92 0Q368.32 0 366.66-0.70Q365.00-1.40 364.40-3.32Q363.80-5.24 363.80-9.40L363.80-9.40Q363.80-13.56 364.40-15.48Q365.00-17.40 366.66-18.10Q368.32-18.80 371.92-18.80L371.92-18.80L381.68-18.80L381.68-3.60ZM378.48-3.60L378.48-15.20L369.96-15.20Q368.48-15.20 367.84-14.68Q367.20-14.16 367.20-12.96L367.20-12.96L367.20-5.84Q367.20-4.64 367.84-4.12Q368.48-3.60 369.96-3.60L369.96-3.60L378.48-3.60ZM369.92-23.60Q369.32-23.56 368.52-24.36Q367.72-25.16 367.72-25.80L367.72-25.80Q367.72-26.44 368.50-27.20Q369.28-27.96 369.92-28L369.92-28Q370.56-27.96 371.34-27.20Q372.12-26.44 372.12-25.80L372.12-25.80Q372.12-25.20 371.32-24.38Q370.52-23.56 369.92-23.60L369.92-23.60ZM375.68-23.60Q375.08-23.56 374.28-24.36Q373.48-25.16 373.48-25.80L373.48-25.80Q373.48-26.44 374.26-27.20Q375.04-27.96 375.68-28L375.68-28Q376.32-27.96 377.10-27.20Q377.88-26.44 377.88-25.80L377.88-25.80Q377.88-25.20 377.08-24.38Q376.28-23.56 375.68-23.60L375.68-23.60Z M393.16 0L393.16 0ZM401.96-3.60L406.76-3.60L406.76 0L392.36 0L392.36-3.60L398.76-3.60L398.76-18.80L401.96-18.80L401.96-3.60ZM397.28 7.60Q396.68 7.64 395.88 6.84Q395.08 6.04 395.08 5.40L395.08 5.40Q395.08 4.76 395.86 4Q396.64 3.24 397.28 3.20L397.28 3.20Q397.92 3.24 398.70 4Q399.48 4.76 399.48 5.40L399.48 5.40Q399.48 6 398.68 6.82Q397.88 7.64 397.28 7.60L397.28 7.60ZM403.04 7.60Q402.44 7.64 401.64 6.84Q400.84 6.04 400.84 5.40L400.84 5.40Q400.84 4.76 401.62 4Q402.40 3.24 403.04 3.20L403.04 3.20Q403.68 3.24 404.46 4Q405.24 4.76 405.24 5.40L405.24 5.40Q405.24 6 404.44 6.82Q403.64 7.64 403.04 7.60L403.04 7.60Z M413.96 0L413.96 0ZM413.16-3.60L419.56-3.60Q419.16-5.72 419.16-10.40L419.16-10.40Q419.16-13.96 419.86-15.82Q420.56-17.68 422.32-18.44Q424.08-19.20 427.56-19.20L427.56-19.20Q429.76-19.20 431.64-18.92Q433.52-18.64 435.92-17.96L435.92-17.96L435.92 0L413.16 0L413.16-3.60ZM430.88-3.60Q431.92-3.60 432.32-4.02Q432.72-4.44 432.72-5.60L432.72-5.60L432.72-15.52L424.40-15.52Q423.32-15.52 422.94-15.08Q422.56-14.64 422.56-13.32L422.56-13.32L422.56-3.60L430.88-3.60ZM427.56-23.60Q426.96-23.56 426.16-24.36Q425.36-25.16 425.36-25.80L425.36-25.80Q425.36-26.44 426.14-27.20Q426.92-27.96 427.56-28L427.56-28Q428.20-27.96 428.98-27.20Q429.76-26.44 429.76-25.80L429.76-25.80Q429.76-25.20 428.96-24.38Q428.16-23.56 427.56-23.60L427.56-23.60Z M451.92 0L451.92-25.20L455.12-25.20L455.12 0L451.92 0Z M475.56-3.60L480.32-3.60L480.32 0L475.56 0Q475.56 3.96 474.16 6.40Q472.76 8.84 469.60 10.36L469.60 10.36L468.24 7.56Q470.56 6.44 471.46 4.78Q472.36 3.12 472.36 0L472.36 0L472.36-18.80L475.56-18.80L475.56-3.60Z M487.52 0L487.52 0ZM507.76-3.60L513.36-3.60L513.36 0L507.76 0Q503.60 0 500.04-1.48L500.04-1.48Q496.48 0 492.32 0L492.32 0L486.72 0L486.72-3.60L492.32-3.60Q494.28-3.60 495.96-3.84L495.96-3.84Q493.28-5.96 491.76-8.90Q490.24-11.84 490.24-15.20L490.24-15.20Q490.24-16.80 491.10-17.64Q491.96-18.48 494.04-18.84Q496.12-19.20 500.04-19.20L500.04-19.20Q503.96-19.20 506.04-18.84Q508.12-18.48 508.98-17.64Q509.84-16.80 509.84-15.20L509.84-15.20Q509.84-11.84 508.32-8.90Q506.80-5.96 504.12-3.84L504.12-3.84Q505.80-3.60 507.76-3.60L507.76-3.60ZM493.44-15.60Q493.44-11.76 495.12-9.08Q496.80-6.40 500.04-5L500.04-5Q503.28-6.40 504.96-9.08Q506.64-11.76 506.64-15.60L506.64-15.60L493.44-15.60ZM500.04-23.60Q499.44-23.56 498.64-24.36Q497.84-25.16 497.84-25.80L497.84-25.80Q497.84-26.44 498.62-27.20Q499.40-27.96 500.04-28L500.04-28Q500.68-27.96 501.46-27.20Q502.24-26.44 502.24-25.80L502.24-25.80Q502.24-25.20 501.44-24.38Q500.64-23.56 500.04-23.60L500.04-23.60Z M520.56 0L520.56 0ZM541.84-3.60L544.24-3.60L544.24 0L542.00 0Q540.84 0 540.14-0.52Q539.44-1.04 539.00-2.24L539.00-2.24L537.64-5.76Q533.96 0 527.08 0L527.08 0L519.76 0L519.76-3.60L528.40-3.60Q531.08-3.60 533.02-5.40Q534.96-7.20 536.08-9.80L536.08-9.80Q535.12-12 533.94-13.24Q532.76-14.48 531.00-15.04Q529.24-15.60 526.56-15.60L526.56-15.60Q524.88-15.60 523.24-15.44L523.24-15.44L522.72-18.96Q525.08-19.20 526.96-19.20L526.96-19.20Q530.32-19.20 532.60-18.36Q534.88-17.52 536.44-15.68Q538.00-13.84 539.12-10.80L539.12-10.80L541.84-3.60ZM531.16 7.60Q530.56 7.64 529.76 6.84Q528.96 6.04 528.96 5.40L528.96 5.40Q528.96 4.76 529.74 4Q530.52 3.24 531.16 3.20L531.16 3.20Q531.80 3.24 532.58 4Q533.36 4.76 533.36 5.40L533.36 5.40Q533.36 6 532.56 6.82Q531.76 7.64 531.16 7.60L531.16 7.60Z M560.24 0L550.64 0L550.64-3.60L557.04-3.60L557.04-25.20L560.24-25.20L560.24 0Z M576.24 0L576.24-25.20L579.44-25.20L579.44 0L576.24 0Z M631.64-3.60L636.44-3.60L636.44 0L614.08 0Q613.44 2.28 613.44 5.68L613.44 5.68Q613.44 8.32 614.56 12.76L614.56 12.76L611.44 13.36Q610.92 11.80 610.58 9.48Q610.24 7.16 610.24 5L610.24 5Q610.24 0.52 611.20-1.44Q612.16-3.40 614.48-3.56L614.48-3.56Q613.84-5.68 613.84-9.12L613.84-9.12Q613.84-13.12 615.60-17.60L615.60-17.60Q617.16-18.32 619.52-18.76Q621.88-19.20 624.28-19.20L624.28-19.20Q627.04-19.20 628.64-18.70Q630.24-18.20 630.94-17.08Q631.64-15.96 631.64-14L631.64-14L631.64-3.60ZM628.44-3.60L628.44-15.16Q626.80-15.60 624-15.60L624-15.60Q621.04-15.60 618.04-14.96L618.04-14.96Q617.04-11.56 617.04-9.12L617.04-9.12Q617.04-5.72 617.76-3.60L617.76-3.60L628.44-3.60Z M643.64 0L643.64 0ZM672.12-3.60L676.92-3.60L676.92 0L642.84 0L642.84-3.60L649.24-3.60L649.24-25.20L652.44-25.20L652.44-11.44Q653.80-15.16 657.32-17.18Q660.84-19.20 665.96-19.20L665.96-19.20Q668.32-19.20 669.64-18.76Q670.96-18.32 671.54-17.28Q672.12-16.24 672.12-14.40L672.12-14.40L672.12-3.60ZM652.48-3.60L668.92-3.60L668.92-15.16Q667.52-15.60 664.48-15.60L664.48-15.60Q658.68-15.60 655.74-12.64Q652.80-9.68 652.48-3.60L652.48-3.60ZM663.64-23.60Q663.04-23.56 662.24-24.36Q661.44-25.16 661.44-25.80L661.44-25.80Q661.44-26.44 662.22-27.20Q663.00-27.96 663.64-28L663.64-28Q664.28-27.96 665.06-27.20Q665.84-26.44 665.84-25.80L665.84-25.80Q665.84-25.20 665.04-24.38Q664.24-23.56 663.64-23.60L663.64-23.60Z M684.12 0L684.12 0ZM692.92-3.60L697.72-3.60L697.72 0L683.32 0L683.32-3.60L689.72-3.60L689.72-18.80L692.92-18.80L692.92-3.60ZM691.32-23.60Q690.72-23.56 689.92-24.36Q689.12-25.16 689.12-25.80L689.12-25.80Q689.12-26.44 689.90-27.20Q690.68-27.96 691.32-28L691.32-28Q691.96-27.96 692.74-27.20Q693.52-26.44 693.52-25.80L693.52-25.80Q693.52-25.20 692.72-24.38Q691.92-23.56 691.32-23.60L691.32-23.60Z M713.72 0L704.12 0L704.12-3.60L710.52-3.60L710.52-25.20L713.72-25.20L713.72 0Z M729.72 0L729.72-25.20L732.92-25.20L732.92 0L729.72 0Z"/></g>
</svg>
</g><g opacity="1" transform="rotate(0 238.9718 194.7674)">
<svg width="30" height="23.7328" x="238.9718" y="194.7674" version="1.1" preserveAspectRatio="none" viewBox="25.9679012298584 30.976905822753903 48.06419372558594 38.023284912109375">
  <g transform="matrix(1 0 0 1 0 0)" class="icon1"><title>Artboard 265</title><path d="M32,69H68a2,2,0,0,0,2-1.67l4-24a2,2,0,0,0-3-2.07L58.93,48.17l-7.1-16a2,2,0,0,0-3.66,0l-7.1,16L29,41.26a2,2,0,0,0-3,2.07l4,24A2,2,0,0,0,32,69Zm9-16.26a2,2,0,0,0,1.61.16,2,2,0,0,0,1.21-1.09L50,37.92l6.17,13.89a2,2,0,0,0,1.21,1.09A2,2,0,0,0,59,52.74l10.34-5.91L66.31,65H33.69l-3-18.17Z"></path></g>
</svg>
</g><g opacity="1" transform="rotate(0 72.7278 210.6338)">
<svg width="151.244" height="2" x="72.7278" y="210.6338" version="1.1" preserveAspectRatio="none" viewBox="0 0 151.244 2">
  <defs><rect x="0" y="0" width="151.244" height="2" rx="0px" ry="0px" id="id-sr1BtIxl1698170206277"></rect></defs><use class="icon1 shapeStroke-str" style="stroke-width:0;" xlink:href="#id-sr1BtIxl1698170206277"></use>
</svg>
</g><g opacity="1" transform="rotate(0 283.9718 210.6338)">
<svg width="151.244" height="2" x="283.9718" y="210.6338" version="1.1" preserveAspectRatio="none" viewBox="0 0 151.244 2">
  <defs><rect x="0" y="0" width="151.244" height="2" rx="0px" ry="0px" id="id-R9TavoXY1698170206277"></rect></defs><use class="icon1 shapeStroke-str" style="stroke-width:0;" xlink:href="#id-R9TavoXY1698170206277"></use>
</svg>
</g><g opacity="1" transform="rotate(0 72.7278 236.6338)">
<svg width="362.488" height="50" x="72.7278" y="236.6338" version="1.1" preserveAspectRatio="none" viewBox="0.8 -28.76 260.12 35.88">
  <g transform="matrix(1 0 0 1 0 0)" class="companyName"><path id="id-D6z1nYkh11" d="M23.56-23.76L23.56-24.44Q23.56-25.40 22.88-26.10Q22.20-26.80 21.28-26.84L21.28-26.84L13.68-26.84L13.68-2.88Q13.72-1.84 14.46-1.12Q15.20-0.40 16.24-0.40L16.24-0.40L16.76-0.40L16.76 0L8 0L8-0.40L8.52-0.40Q9.56-0.40 10.30-1.12Q11.04-1.84 11.08-2.84L11.08-2.84L11.08-26.84L3.48-26.84Q2.52-26.80 1.86-26.10Q1.20-25.40 1.20-24.44L1.20-24.44L1.20-23.76L0.80-23.72L0.80-28.76Q1.40-28.52 2.88-28.28Q4.36-28.04 5.60-28.04L5.60-28.04L19.12-28.04Q21.08-28.04 22.38-28.34Q23.68-28.64 23.96-28.76L23.96-28.76L23.96-23.72L23.56-23.76Z M49.72-0.40L49.72-0.40L50.04-0.40L50.04 0L41.84 0L41.84-0.40L42.16-0.40Q42.92-0.40 43.32-0.92Q43.72-1.44 43.72-1.90Q43.72-2.36 43.56-2.80L43.56-2.80L41.36-8.12L31.24-8.12L29.04-2.92Q28.84-2.40 28.84-1.94Q28.84-1.48 29.24-0.94Q29.64-0.40 30.44-0.40L30.44-0.40L30.76-0.40L30.76 0L23.12 0L23.12-0.40L23.44-0.40Q24.28-0.40 25.14-0.98Q26-1.56 26.56-2.72L26.56-2.72Q35.32-21.44 35.68-22.32L35.68-22.32Q36.36-24 36.40-24.56L36.40-24.56L36.76-24.56L46.64-2.72Q47.80-0.40 49.72-0.40ZM36.40-20.28L31.76-9.32L40.88-9.32L36.40-20.28Z M62.80-23.60L62.28-23.60Q60.80-23.60 60.04-22.52L60.04-22.52Q59.72-22.04 59.68-21.44L59.68-21.44L59.68 0Q59.68 2.92 57.50 5.02Q55.32 7.12 52.36 7.12L52.36 7.12L52.36 6.72Q54.32 6.12 55.72 4.16Q57.12 2.20 57.12 0L57.12 0L57.12-21.60Q57.04-22.44 56.30-23.02Q55.56-23.60 54.52-23.60L54.52-23.60L54.04-23.60L54-24L62.80-24L62.80-23.60Z M74.32-22.98Q77.40-24.56 81.10-24.56Q84.80-24.56 87.88-22.98Q90.96-21.40 92.78-18.52Q94.60-15.64 94.60-12Q94.60-8.36 92.78-5.48Q90.96-2.60 87.88-1.02Q84.80 0.56 81.56 0.56Q78.32 0.56 75.84-0.36Q73.36-1.28 71.54-2.92Q69.72-4.56 68.66-6.92Q67.60-9.28 67.60-12.46Q67.60-15.64 69.42-18.52Q71.24-21.40 74.32-22.98ZM73.58-3.82Q76.60-0.64 81.08-0.64Q85.56-0.64 88.60-3.82Q91.64-7 91.64-12Q91.64-17 88.60-20.18Q85.56-23.36 81.08-23.36Q76.60-23.36 73.58-20.18Q70.56-17 70.56-12Q70.56-7 73.58-3.82Z M124.76-24L124.76-23.60L124.16-23.60Q123.08-23.60 122.52-22.76L122.52-22.76Q122.28-22.40 122.24-21.92L122.24-21.92L122.24-8.44Q122.24-4.28 119.58-1.86Q116.92 0.56 112.28 0.56Q107.64 0.56 104.96-1.84Q102.28-4.24 102.28-8.40L102.28-8.40L102.28-21.88Q102.28-22.60 101.72-23.10Q101.16-23.60 100.36-23.60L100.36-23.60L99.76-23.60L99.76-24L107.36-24L107.36-23.60L106.76-23.60Q105.96-23.60 105.40-23.10Q104.84-22.60 104.84-21.88L104.84-21.88L104.84-8.88Q104.84-5 106.82-2.76Q108.80-0.52 112.42-0.52Q116.04-0.52 118.22-2.64Q120.40-4.76 120.40-8.44L120.40-8.44L120.40-21.88Q120.36-22.64 119.82-23.12Q119.28-23.60 118.48-23.60L118.48-23.60L117.88-23.60L117.88-24L124.76-24Z M137.84-22.76L137.84-22.76L135.72-22.76L135.72-2.56Q135.76-1.32 136.84-0.68L136.84-0.68Q137.36-0.40 138-0.40L138-0.40L138.52-0.40L138.56 0L130.36 0L130.36-0.40L130.92-0.40Q131.84-0.40 132.50-1.02Q133.16-1.64 133.16-2.52L133.16-2.52L133.16-21.52Q133.16-22.40 132.50-23Q131.84-23.60 130.92-23.60L130.92-23.60L130.36-23.60L130.36-24L140.40-24Q144.16-24 146.34-22.28Q148.52-20.56 148.52-17.76Q148.52-14.96 146.76-13.08Q145-11.20 142.28-10.92L142.28-10.92Q143.56-10.36 145.36-7.80L145.36-7.80Q145.32-7.80 146.74-6.04Q148.16-4.28 149.02-3.30Q149.88-2.32 150.44-1.80L150.44-1.80Q151.92-0.40 153.84-0.40L153.84-0.40L153.84 0L152.60 0Q149.44 0 147.64-1.24L147.64-1.24Q146.28-2.16 145.16-3.52L145.16-3.52Q144.92-3.84 143.14-6.34Q141.36-8.84 141.24-9L141.24-9Q139.08-11.68 137.20-11.68L137.20-11.68L137.20-12.08Q141.88-12.08 142.84-12.56L142.84-12.56Q144.16-13.24 144.64-14L144.64-14Q145.64-15.60 145.64-17.52L145.64-17.52Q145.64-19.96 144.20-21.28Q142.76-22.60 140.32-22.72L140.32-22.72Q139.24-22.76 137.84-22.76Z M181.64-0.40L181.64-0.40L181.96-0.40L181.96 0L173.76 0L173.76-0.40L174.08-0.40Q174.84-0.40 175.24-0.92Q175.64-1.44 175.64-1.90Q175.64-2.36 175.48-2.80L175.48-2.80L173.28-8.12L163.16-8.12L160.96-2.92Q160.76-2.40 160.76-1.94Q160.76-1.48 161.16-0.94Q161.56-0.40 162.36-0.40L162.36-0.40L162.68-0.40L162.68 0L155.04 0L155.04-0.40L155.36-0.40Q156.20-0.40 157.06-0.98Q157.92-1.56 158.48-2.72L158.48-2.72Q167.24-21.44 167.60-22.32L167.60-22.32Q168.28-24 168.32-24.56L168.32-24.56L168.68-24.56L178.56-2.72Q179.72-0.40 181.64-0.40ZM168.32-20.28L163.68-9.32L172.80-9.32L168.32-20.28Z M212.52 0.56Q206.12 0.52 202.14-3.48Q198.16-7.48 198.16-14Q198.16-20.52 202.14-24.54Q206.12-28.56 212.52-28.56L212.52-28.56Q218.04-28.56 222.24-25.84L222.24-25.84L223.04-20.20L222.68-20.20Q221.80-23.64 219.14-25.50Q216.48-27.36 212.52-27.36L212.52-27.36Q207.44-27.36 204.30-23.68Q201.16-20 201.16-14Q201.16-8 204.30-4.34Q207.44-0.68 212.52-0.64L212.52-0.64Q215.12-0.64 217.46-1.56Q219.80-2.48 221.56-4.12L221.56-4.12L221.56-11.20Q221.56-12.08 221.02-12.54Q220.48-13 219.52-13L219.52-13L218.88-13L218.88-13.40L226.72-13.40L226.72-13L226.12-13Q225.12-13 224.60-12.54Q224.08-12.08 224.12-11.20L224.12-11.20L224.12-4.60Q223.08-3.24 221.64-2.16Q220.20-1.08 217.78-0.26Q215.36 0.56 212.52 0.56L212.52 0.56Z M231.08-0.40L231.60-0.40Q232.64-0.40 233.38-1.14Q234.12-1.88 234.16-2.92L234.16-2.92L234.16-25.12Q234.12-26.16 233.38-26.88Q232.64-27.60 231.60-27.60L231.60-27.60L231.08-27.60L231.08-28L239.84-28L239.84-27.60L239.32-27.60Q238.28-27.60 237.54-26.88Q236.80-26.16 236.76-25.12L236.76-25.12L236.76-2.92Q236.76-1.88 237.52-1.14Q238.28-0.40 239.32-0.40L239.32-0.40L239.84-0.40L239.84 0L231.08 0L231.08-0.40Z M246.64-1.64L246.64-1.64Q246.52-2.20 246.52-3.80Q246.52-5.40 247.12-7.20L247.12-7.20L247.48-7.20Q247.44-6.76 247.44-6.32L247.44-6.32Q247.44-3.88 248.92-2.26Q250.40-0.64 252.84-0.64L252.84-0.64Q255.36-0.64 256.98-2.16Q258.60-3.68 258.60-5.98Q258.60-8.28 257.04-9.72L257.04-9.72L249.36-16.84Q247.20-18.84 247.20-21.68Q247.20-24.52 249.10-26.54Q251.00-28.56 254.24-28.56L254.24-28.56Q255.76-28.56 257.68-28.16L257.68-28.16L259.24-28.16L259.24-23.24L258.88-23.24Q258.88-25.12 257.58-26.24Q256.28-27.36 254.24-27.36Q252.20-27.36 250.82-26Q249.44-24.64 249.44-22.60Q249.44-20.56 251.04-19.08L251.04-19.08L258.92-11.80Q260.92-9.96 260.92-6.76Q260.92-3.56 258.88-1.50Q256.84 0.56 253.44 0.56L253.44 0.56Q251.68 0.56 249.70 0.02Q247.72-0.52 246.64-1.64Z"/></g>
</svg>
</g></svg></svg>